<?xml version="1.0" encoding="UTF-8"?>
<svg xmlns="http://www.w3.org/2000/svg" width="18" height="18" viewBox="8 8 48 48">
  <g fill="#000000" stroke="#000000">
    <path d="M15.5 22.5 A19 19 0 0 1 48.5 22.5" fill="none" stroke-width="6" stroke-linecap="butt"/>
    <g transform="translate(0 0.3125)">
      <path d="M46 17.8 L54 22.5 L46 27.2 Z" transform="rotate(180 48.667 22.5)" stroke="none"/>
    </g>
    <circle cx="15.5" cy="22.5" r="3" stroke="none"/>

    <path d="M48.5 41.5 A19 19 0 0 1 15.5 41.5" fill="none" stroke-width="6" stroke-linecap="butt"/>
    <g transform="translate(0 -0.3125)">
      <path d="M18 36.8 L10 41.5 L18 46.2 Z" transform="rotate(180 15.333 41.5)" stroke="none"/>
    </g>
    <circle cx="48.5" cy="41.5" r="3" stroke="none"/>

    <rect x="29.5" y="22.5" width="5" height="19" rx="2.5" stroke="none"/>
    <rect x="25.5" y="20" width="13" height="5" rx="2.5" stroke="none"/>
    <rect x="25.5" y="39" width="13" height="5" rx="2.5" stroke="none"/>
  </g>
</svg>
